# xmcd CD database file
#
# Track frame offsets:
#	150
#	19265
#	38205
#	57332
#
# Disc length: 1017 seconds
#
# Revision: 0
# Processed by: cddbd v1.5PL3 Copyright (c) Steve Scherf et al.
# Submitted via: CDex 1.51
#
DISCID=2e03f704
DTITLE=S.E.S - Love 〜いつまでもオンジェ･カジナ〜
DYEAR=2000
DGENRE=JPop
TTITLE0=Love 〜いつまでもオンジェ･カジナ〜
TTITLE1=Round and Round
TTITLE2=Round and Round (Again and Again Mix)
TTITLE3=Love 〜いつまでもオンジェ･カジナ〜 (Instrumental)
EXTD=YEAR: 2000
EXTT0=
EXTT1=
EXTT2=
EXTT3=
PLAYORDER=
